<svg width="149" height="55" viewBox="0 0 149 55" fill="none" xmlns="http://www.w3.org/2000/svg">
<g opacity="0.9">
<rect width="149" height="55" rx="8" fill="white"/>
<g clip-path="url(#clip0_1_854)">
<path d="M32.6764 16.3634C33.8805 15.0743 34.6949 13.2846 34.472 11.5C32.7373 11.5619 30.6349 12.5183 29.3898 13.8072C28.2736 14.9483 27.2964 16.772 27.5572 18.5216C29.4928 18.6526 31.4703 17.6503 32.6764 16.3634ZM36.3707 28.6881C36.3337 24.6871 39.5383 22.7655 39.6802 22.6726C37.8786 19.9557 35.0727 19.5839 34.0735 19.542C31.6843 19.2912 29.4149 20.9889 28.2019 20.9889C26.9939 20.9889 25.1253 19.5749 23.1437 19.6129C20.5387 19.6558 18.1384 21.1727 16.8005 23.5769C14.0944 28.4133 16.1069 35.5779 18.7439 39.5009C20.0329 41.4214 21.5678 43.5758 23.5832 43.4979C25.5288 43.42 26.2622 42.2039 28.6095 42.2039C30.9577 42.2039 31.6152 43.4979 33.6696 43.4589C35.7601 43.42 37.083 41.5014 38.3611 39.5749C39.84 37.3476 40.4496 35.1912 40.4845 35.0823C40.4396 35.0563 36.4136 33.4725 36.3707 28.6881Z" fill="#CCD0D2"/>
</g>
<path d="M59.84 22.108C59.104 22.108 58.448 22.012 57.872 21.82C57.304 21.62 56.84 21.352 56.48 21.016L56.84 20.248C57.232 20.584 57.664 20.836 58.136 21.004C58.608 21.164 59.16 21.244 59.792 21.244C60.608 21.244 61.204 21.108 61.58 20.836C61.956 20.564 62.144 20.164 62.144 19.636C62.144 19.116 61.976 18.736 61.64 18.496C61.312 18.248 60.812 18.124 60.14 18.124H58.004V17.308H59.972C60.612 17.308 61.1 17.184 61.436 16.936C61.772 16.68 61.94 16.312 61.94 15.832C61.94 15.352 61.76 14.976 61.4 14.704C61.048 14.432 60.516 14.296 59.804 14.296C59.276 14.296 58.78 14.376 58.316 14.536C57.852 14.688 57.428 14.928 57.044 15.256L56.672 14.488C57.048 14.144 57.516 13.884 58.076 13.708C58.644 13.524 59.24 13.432 59.864 13.432C60.536 13.432 61.1 13.528 61.556 13.72C62.012 13.904 62.352 14.168 62.576 14.512C62.808 14.856 62.924 15.264 62.924 15.736C62.924 16.256 62.764 16.696 62.444 17.056C62.132 17.408 61.704 17.644 61.16 17.764V17.596C61.768 17.668 62.248 17.888 62.6 18.256C62.952 18.616 63.128 19.092 63.128 19.684C63.128 20.18 63.008 20.612 62.768 20.98C62.528 21.34 62.164 21.62 61.676 21.82C61.188 22.012 60.576 22.108 59.84 22.108ZM67.1398 22.108C66.6038 22.108 66.1358 21.984 65.7358 21.736C65.3358 21.48 65.0238 21.12 64.7998 20.656C64.5838 20.192 64.4758 19.636 64.4758 18.988C64.4758 18.332 64.5838 17.772 64.7998 17.308C65.0238 16.844 65.3358 16.488 65.7358 16.24C66.1358 15.992 66.6038 15.868 67.1398 15.868C67.6838 15.868 68.1518 16.008 68.5438 16.288C68.9438 16.56 69.2078 16.932 69.3358 17.404H69.1918L69.3238 15.976H70.2598C70.2358 16.208 70.2118 16.444 70.1878 16.684C70.1718 16.916 70.1638 17.144 70.1638 17.368V22H69.1918V20.584H69.3238C69.1958 21.056 68.9318 21.428 68.5318 21.7C68.1318 21.972 67.6678 22.108 67.1398 22.108ZM67.3318 21.316C67.9078 21.316 68.3638 21.12 68.6998 20.728C69.0358 20.328 69.2038 19.748 69.2038 18.988C69.2038 18.22 69.0358 17.64 68.6998 17.248C68.3638 16.848 67.9078 16.648 67.3318 16.648C66.7638 16.648 66.3078 16.848 65.9638 17.248C65.6278 17.64 65.4598 18.22 65.4598 18.988C65.4598 19.748 65.6278 20.328 65.9638 20.728C66.3078 21.12 66.7638 21.316 67.3318 21.316ZM72.1241 22V15.976H76.3241V16.756H73.0961V22H72.1241ZM77.5158 24.592V17.368C77.5158 17.144 77.5038 16.916 77.4798 16.684C77.4638 16.444 77.4438 16.208 77.4198 15.976H78.3558L78.4878 17.404H78.3438C78.4718 16.932 78.7318 16.56 79.1238 16.288C79.5158 16.008 79.9838 15.868 80.5278 15.868C81.0718 15.868 81.5398 15.992 81.9318 16.24C82.3318 16.488 82.6438 16.844 82.8678 17.308C83.0918 17.772 83.2038 18.332 83.2038 18.988C83.2038 19.636 83.0918 20.192 82.8678 20.656C82.6518 21.12 82.3438 21.48 81.9438 21.736C81.5438 21.984 81.0718 22.108 80.5278 22.108C79.9918 22.108 79.5278 21.972 79.1358 21.7C78.7438 21.428 78.4838 21.056 78.3558 20.584H78.4878V24.592H77.5158ZM80.3358 21.316C80.9118 21.316 81.3678 21.12 81.7038 20.728C82.0478 20.328 82.2198 19.748 82.2198 18.988C82.2198 18.22 82.0478 17.64 81.7038 17.248C81.3678 16.848 80.9118 16.648 80.3358 16.648C79.7678 16.648 79.3118 16.848 78.9678 17.248C78.6318 17.64 78.4638 18.22 78.4638 18.988C78.4638 19.748 78.6318 20.328 78.9678 20.728C79.3118 21.12 79.7678 21.316 80.3358 21.316ZM84.5297 24.724L84.3017 23.92C84.6777 23.832 84.9897 23.728 85.2377 23.608C85.4937 23.496 85.7057 23.344 85.8737 23.152C86.0417 22.96 86.1857 22.72 86.3057 22.432L86.6177 21.724L86.5937 22.132L83.9657 15.976H85.0217L87.1937 21.268H86.8817L89.0297 15.976H90.0497L87.2657 22.504C87.1057 22.888 86.9297 23.208 86.7377 23.464C86.5457 23.728 86.3377 23.94 86.1137 24.1C85.8977 24.268 85.6577 24.4 85.3937 24.496C85.1297 24.592 84.8417 24.668 84.5297 24.724ZM93.1825 22.108C92.6705 22.108 92.1865 22.04 91.7305 21.904C91.2825 21.76 90.9145 21.564 90.6265 21.316L90.9625 20.632C91.2585 20.872 91.5905 21.056 91.9585 21.184C92.3345 21.304 92.7425 21.364 93.1825 21.364C93.7745 21.364 94.2025 21.272 94.4665 21.088C94.7305 20.904 94.8625 20.644 94.8625 20.308C94.8625 19.98 94.7505 19.732 94.5265 19.564C94.3025 19.388 93.9745 19.3 93.5425 19.3H92.1265V18.58H93.4225C93.8065 18.58 94.1065 18.496 94.3225 18.328C94.5465 18.152 94.6585 17.912 94.6585 17.608C94.6585 17.296 94.5385 17.052 94.2985 16.876C94.0585 16.692 93.6825 16.6 93.1705 16.6C92.7625 16.6 92.3825 16.656 92.0305 16.768C91.6865 16.872 91.3585 17.04 91.0465 17.272L90.7225 16.612C91.0505 16.356 91.4305 16.168 91.8625 16.048C92.2945 15.928 92.7625 15.868 93.2665 15.868C94.0185 15.868 94.5905 16.016 94.9825 16.312C95.3745 16.6 95.5705 17.012 95.5705 17.548C95.5705 17.924 95.4425 18.248 95.1865 18.52C94.9305 18.784 94.5905 18.94 94.1665 18.988V18.844C94.6465 18.86 95.0345 19.004 95.3305 19.276C95.6265 19.548 95.7745 19.904 95.7745 20.344C95.7745 20.88 95.5545 21.308 95.1145 21.628C94.6825 21.948 94.0385 22.108 93.1825 22.108ZM97.2842 22V15.976H98.1722V21.1H97.8482L101.688 15.976H102.504V22H101.628V16.864H101.952L98.1122 22H97.2842ZM105.705 22V16.756H103.521V15.976H108.873V16.756H106.677V22H105.705ZM112.582 22.108C111.958 22.108 111.418 21.988 110.962 21.748C110.506 21.5 110.154 21.144 109.906 20.68C109.658 20.208 109.534 19.648 109.534 19C109.534 18.368 109.654 17.82 109.894 17.356C110.134 16.884 110.47 16.52 110.902 16.264C111.334 16 111.83 15.868 112.39 15.868C112.942 15.868 113.406 15.984 113.782 16.216C114.158 16.448 114.446 16.78 114.646 17.212C114.846 17.636 114.946 18.14 114.946 18.724V19.084H110.278V18.472H114.31L114.106 18.628C114.106 17.988 113.962 17.488 113.674 17.128C113.386 16.768 112.958 16.588 112.39 16.588C111.982 16.588 111.634 16.684 111.346 16.876C111.066 17.068 110.85 17.336 110.698 17.68C110.554 18.024 110.482 18.436 110.482 18.916V19.024C110.482 19.776 110.666 20.348 111.034 20.74C111.41 21.124 111.934 21.316 112.606 21.316C112.966 21.316 113.302 21.264 113.614 21.16C113.934 21.048 114.238 20.868 114.526 20.62L114.862 21.304C114.598 21.56 114.262 21.76 113.854 21.904C113.454 22.04 113.03 22.108 112.582 22.108ZM119.632 22V15.976H122.536C123.008 15.976 123.396 16.036 123.7 16.156C124.004 16.276 124.232 16.456 124.384 16.696C124.544 16.928 124.624 17.216 124.624 17.56C124.624 17.944 124.488 18.268 124.216 18.532C123.952 18.788 123.608 18.94 123.184 18.988V18.844C123.68 18.86 124.076 19.004 124.372 19.276C124.668 19.548 124.816 19.9 124.816 20.332C124.816 20.852 124.624 21.26 124.24 21.556C123.864 21.852 123.328 22 122.632 22H119.632ZM120.556 21.34H122.584C123.008 21.34 123.332 21.252 123.556 21.076C123.788 20.892 123.904 20.632 123.904 20.296C123.904 19.96 123.788 19.704 123.556 19.528C123.332 19.352 123.008 19.264 122.584 19.264H120.556V21.34ZM120.556 18.604H122.476C122.868 18.604 123.172 18.516 123.388 18.34C123.604 18.164 123.712 17.92 123.712 17.608C123.712 17.296 123.604 17.056 123.388 16.888C123.172 16.712 122.868 16.624 122.476 16.624H120.556V18.604Z" fill="#1E1E1E"/>
<path d="M56 41L61.104 29.72H62.832L68 41H65.904L64.528 37.832L65.36 38.392H58.592L59.456 37.832L58.08 41H56ZM61.952 31.928L59.696 37.272L59.28 36.776H64.656L64.32 37.272L62.016 31.928H61.952ZM69.088 44.456V34.936C69.088 34.6053 69.0773 34.2693 69.056 33.928C69.0347 33.5867 69.0027 33.2507 68.96 32.92H70.896L71.072 34.616H70.896C71.056 34.0507 71.392 33.6027 71.904 33.272C72.4267 32.9307 73.0293 32.76 73.712 32.76C74.4267 32.76 75.0507 32.9307 75.584 33.272C76.1173 33.6027 76.5333 34.0827 76.832 34.712C77.1307 35.3307 77.28 36.0773 77.28 36.952C77.28 37.8267 77.1307 38.5787 76.832 39.208C76.5333 39.8373 76.1173 40.3227 75.584 40.664C75.0507 40.9947 74.4267 41.16 73.712 41.16C73.04 41.16 72.448 40.9947 71.936 40.664C71.424 40.3333 71.0827 39.8907 70.912 39.336H71.088V44.456H69.088ZM73.152 39.624C73.792 39.624 74.304 39.4053 74.688 38.968C75.072 38.52 75.264 37.848 75.264 36.952C75.264 36.056 75.072 35.3893 74.688 34.952C74.304 34.5147 73.792 34.296 73.152 34.296C72.5227 34.296 72.016 34.5147 71.632 34.952C71.248 35.3893 71.056 36.056 71.056 36.952C71.056 37.848 71.248 38.52 71.632 38.968C72.016 39.4053 72.5227 39.624 73.152 39.624ZM79.0099 44.456V34.936C79.0099 34.6053 78.9992 34.2693 78.9779 33.928C78.9565 33.5867 78.9245 33.2507 78.8819 32.92H80.8179L80.9939 34.616H80.8179C80.9779 34.0507 81.3139 33.6027 81.8259 33.272C82.3485 32.9307 82.9512 32.76 83.6339 32.76C84.3485 32.76 84.9725 32.9307 85.5059 33.272C86.0392 33.6027 86.4552 34.0827 86.7539 34.712C87.0525 35.3307 87.2019 36.0773 87.2019 36.952C87.2019 37.8267 87.0525 38.5787 86.7539 39.208C86.4552 39.8373 86.0392 40.3227 85.5059 40.664C84.9725 40.9947 84.3485 41.16 83.6339 41.16C82.9619 41.16 82.3699 40.9947 81.8579 40.664C81.3459 40.3333 81.0045 39.8907 80.8339 39.336H81.0099V44.456H79.0099ZM83.0739 39.624C83.7139 39.624 84.2259 39.4053 84.6099 38.968C84.9939 38.52 85.1859 37.848 85.1859 36.952C85.1859 36.056 84.9939 35.3893 84.6099 34.952C84.2259 34.5147 83.7139 34.296 83.0739 34.296C82.4445 34.296 81.9379 34.5147 81.5539 34.952C81.1699 35.3893 80.9779 36.056 80.9779 36.952C80.9779 37.848 81.1699 38.52 81.5539 38.968C81.9379 39.4053 82.4445 39.624 83.0739 39.624ZM97.4184 41.16C96.5117 41.16 95.6744 41.048 94.9064 40.824C94.149 40.5893 93.4984 40.2693 92.9544 39.864L93.5944 38.248C93.957 38.504 94.3357 38.7227 94.7304 38.904C95.125 39.0747 95.5464 39.208 95.9944 39.304C96.4424 39.3893 96.917 39.432 97.4184 39.432C98.261 39.432 98.869 39.2933 99.2424 39.016C99.6157 38.7387 99.8024 38.376 99.8024 37.928C99.8024 37.5333 99.6744 37.2347 99.4184 37.032C99.1624 36.8187 98.7037 36.6427 98.0424 36.504L96.2344 36.136C95.1997 35.9227 94.4264 35.5653 93.9144 35.064C93.4024 34.5627 93.1464 33.8907 93.1464 33.048C93.1464 32.344 93.333 31.7307 93.7064 31.208C94.0797 30.6853 94.6024 30.28 95.2744 29.992C95.9464 29.704 96.7304 29.56 97.6264 29.56C98.4264 29.56 99.1677 29.6773 99.8504 29.912C100.533 30.136 101.104 30.4613 101.562 30.888L100.922 32.424C100.464 32.04 99.9624 31.7573 99.4184 31.576C98.8744 31.384 98.2664 31.288 97.5944 31.288C96.837 31.288 96.245 31.4373 95.8184 31.736C95.4024 32.024 95.1944 32.424 95.1944 32.936C95.1944 33.3307 95.3224 33.6453 95.5784 33.88C95.845 34.1147 96.293 34.296 96.9224 34.424L98.7144 34.776C99.781 34.9893 100.57 35.3413 101.082 35.832C101.594 36.312 101.85 36.9627 101.85 37.784C101.85 38.456 101.669 39.048 101.306 39.56C100.944 40.0613 100.432 40.456 99.7704 40.744C99.109 41.0213 98.325 41.16 97.4184 41.16ZM107.013 41.16C106.053 41.16 105.327 40.9093 104.837 40.408C104.346 39.9067 104.101 39.1547 104.101 38.152V34.424H102.549V32.92H104.101V30.856L106.101 30.344V32.92H108.261V34.424H106.101V38.024C106.101 38.5787 106.207 38.968 106.421 39.192C106.634 39.416 106.927 39.528 107.301 39.528C107.503 39.528 107.674 39.512 107.813 39.48C107.962 39.448 108.106 39.4053 108.245 39.352V40.936C108.063 41.0107 107.861 41.064 107.637 41.096C107.423 41.1387 107.215 41.16 107.013 41.16ZM113.189 41.16C112.357 41.16 111.637 40.9893 111.029 40.648C110.421 40.3067 109.946 39.8213 109.605 39.192C109.274 38.5627 109.109 37.816 109.109 36.952C109.109 36.088 109.274 35.3467 109.605 34.728C109.946 34.0987 110.421 33.6133 111.029 33.272C111.637 32.9307 112.357 32.76 113.189 32.76C114.021 32.76 114.741 32.9307 115.349 33.272C115.968 33.6133 116.442 34.0987 116.773 34.728C117.114 35.3467 117.285 36.088 117.285 36.952C117.285 37.816 117.114 38.5627 116.773 39.192C116.442 39.8213 115.968 40.3067 115.349 40.648C114.741 40.9893 114.021 41.16 113.189 41.16ZM113.189 39.624C113.818 39.624 114.32 39.4053 114.693 38.968C115.066 38.52 115.253 37.848 115.253 36.952C115.253 36.056 115.066 35.3893 114.693 34.952C114.32 34.5147 113.818 34.296 113.189 34.296C112.56 34.296 112.058 34.5147 111.685 34.952C111.312 35.3893 111.125 36.056 111.125 36.952C111.125 37.848 111.312 38.52 111.685 38.968C112.058 39.4053 112.56 39.624 113.189 39.624ZM118.994 41V34.984C118.994 34.6427 118.983 34.296 118.962 33.944C118.951 33.592 118.925 33.2507 118.882 32.92H120.818L121.042 35.128H120.722C120.829 34.5947 121.005 34.152 121.25 33.8C121.506 33.448 121.815 33.1867 122.178 33.016C122.541 32.8453 122.935 32.76 123.362 32.76C123.554 32.76 123.709 32.7707 123.826 32.792C123.943 32.8027 124.061 32.8293 124.178 32.872L124.162 34.632C123.959 34.5467 123.783 34.4933 123.634 34.472C123.495 34.4507 123.319 34.44 123.106 34.44C122.647 34.44 122.258 34.536 121.938 34.728C121.629 34.92 121.394 35.1867 121.234 35.528C121.085 35.8693 121.01 36.2587 121.01 36.696V41H118.994ZM129.07 41.16C128.163 41.16 127.385 40.9947 126.734 40.664C126.094 40.3227 125.598 39.8373 125.246 39.208C124.905 38.5787 124.734 37.832 124.734 36.968C124.734 36.1253 124.899 35.3893 125.23 34.76C125.561 34.1307 126.019 33.64 126.606 33.288C127.203 32.936 127.897 32.76 128.686 32.76C129.465 32.76 130.115 32.9253 130.638 33.256C131.161 33.5867 131.555 34.0507 131.822 34.648C132.099 35.2453 132.238 35.944 132.238 36.744V37.272H126.35V36.216H130.814L130.542 36.44C130.542 35.6933 130.382 35.1227 130.062 34.728C129.753 34.3333 129.299 34.136 128.702 34.136C128.254 34.136 127.875 34.2427 127.566 34.456C127.267 34.6693 127.038 34.9733 126.878 35.368C126.718 35.7627 126.638 36.2427 126.638 36.808V37.016C126.638 37.8907 126.851 38.5467 127.278 38.984C127.715 39.4107 128.329 39.624 129.118 39.624C129.577 39.624 130.003 39.5653 130.398 39.448C130.803 39.32 131.187 39.1173 131.55 38.84L132.142 40.184C131.758 40.4933 131.299 40.7333 130.766 40.904C130.233 41.0747 129.667 41.16 129.07 41.16Z" fill="#1E1E1E"/>
</g>
<defs>
<clipPath id="clip0_1_854">
<rect width="32" height="32" fill="white" transform="translate(12 11.5)"/>
</clipPath>
</defs>
</svg>
