<svg width="36" height="37" viewBox="0 0 36 37" fill="none" xmlns="http://www.w3.org/2000/svg">
<g clip-path="url(#clip0_1_913)">
<path d="M23.2609 5.97129C24.6156 4.5211 25.5318 2.50771 25.281 0.5C23.3295 0.569644 20.9643 1.64555 19.5635 3.09561C18.3078 4.37934 17.2084 6.43101 17.5018 8.39933C19.6794 8.54665 21.9041 7.41913 23.2609 5.97129ZM27.417 19.8366C27.3754 15.3355 30.9806 13.1737 31.1403 13.0692C29.1134 10.0126 25.9568 9.5944 24.8326 9.54723C22.1448 9.26507 19.5918 11.175 18.2272 11.175C16.8681 11.175 14.7659 9.58428 12.5367 9.627C9.60607 9.67528 6.90574 11.3818 5.40061 14.0865C2.35626 19.5275 4.62032 27.5876 7.58687 32.001C9.03706 34.1616 10.7637 36.5853 13.0311 36.4977C15.2199 36.41 16.045 35.0419 18.6857 35.0419C21.3274 35.0419 22.0671 36.4977 24.3783 36.4538C26.7301 36.41 28.2184 34.2516 29.6563 32.0842C31.3199 29.5785 32.0058 27.1526 32.045 27.0301C31.9945 27.0008 27.4653 25.2191 27.417 19.8366Z" fill="#CCD0D2"/>
</g>
<defs>
<clipPath id="clip0_1_913">
<rect width="36" height="36" fill="white" transform="translate(0 0.5)"/>
</clipPath>
</defs>
</svg>
