<svg width="29" height="24" viewBox="0 0 29 24" fill="none" xmlns="http://www.w3.org/2000/svg">
<g clip-path="url(#clip0_1_1324)">
<path d="M28.1691 3.29526C27.8064 2.8664 27.2983 2.60445 26.7385 2.55769L7.02059 0.911272C6.4607 0.864515 5.91634 1.03858 5.48743 1.40133C5.06027 1.76264 4.7987 2.26812 4.75047 2.82522L4.35376 6.54702H2.76975C1.61016 6.54702 0.666748 7.49043 0.666748 8.65002V20.993C0.666748 22.1526 1.61016 23.096 2.76975 23.096H22.5563C23.716 23.096 24.6594 22.1526 24.6594 20.993V18.9908L25.3615 19.0494C25.4207 19.0543 25.4796 19.0568 25.538 19.0568C26.6191 19.0568 27.5407 18.225 27.6322 17.1287L28.6593 4.82847C28.706 4.26863 28.5319 3.72417 28.1691 3.29526ZM2.76975 7.64076H22.5563C23.1128 7.64076 23.5656 8.09352 23.5656 8.65002V9.77471H1.76049V8.65002C1.76049 8.09352 2.21325 7.64076 2.76975 7.64076ZM1.76049 10.8685H23.5656V13.1374H1.76049V10.8685ZM22.5563 22.0023H2.76975C2.21325 22.0023 1.76049 21.5495 1.76049 20.993V14.2311H23.5656V20.993C23.5656 21.5495 23.1128 22.0023 22.5563 22.0023ZM27.5693 4.73741L26.5423 17.0376C26.4959 17.5922 26.007 18.0059 25.4525 17.9594L24.6594 17.8932V8.65002C24.6594 7.49043 23.716 6.54702 22.5563 6.54702H5.45374L5.83869 2.93547C5.83913 2.93131 5.83951 2.92721 5.83984 2.923C5.88616 2.36842 6.37484 1.95476 6.92959 2.00124L26.6475 3.64766C26.9162 3.67008 27.1601 3.79581 27.3341 4.00165C27.5082 4.20749 27.5918 4.46873 27.5693 4.73741Z" fill="#5E5E5E"/>
<path d="M21.2767 15.8569H16.0134C15.7114 15.8569 15.4666 16.1018 15.4666 16.4038V19.8376C15.4666 20.1396 15.7114 20.3845 16.0134 20.3845H21.2767C21.5787 20.3845 21.8235 20.1396 21.8235 19.8376V16.4038C21.8235 16.1018 21.5787 15.8569 21.2767 15.8569ZM20.7298 19.2907H16.5603V16.9507H20.7298V19.2907Z" fill="#5E5E5E"/>
</g>
<defs>
<clipPath id="clip0_1_1324">
<rect width="28" height="24" fill="white" transform="translate(0.666748)"/>
</clipPath>
</defs>
</svg>
