<svg width="30" height="29" viewBox="0 0 30 29" fill="none" xmlns="http://www.w3.org/2000/svg">
<rect width="30" height="28" transform="translate(0 0.5)" fill="#F6F6F6"/>
<rect y="1" width="3.5" height="3.5" fill="#B1B1B1"/>
<rect y="13" width="3.5" height="3.5" fill="#B1B1B1"/>
<rect y="19" width="3.5" height="3.5" fill="#B1B1B1"/>
<rect y="25" width="3.5" height="3.5" fill="#B1B1B1"/>
<rect y="7" width="3.5" height="3.5" fill="#B1B1B1"/>
<rect x="13" y="1" width="3.5" height="3.5" fill="#B1B1B1"/>
<rect x="19.5" y="1" width="3.5" height="3.5" fill="#B1B1B1"/>
<rect x="26" y="1" width="3.5" height="3.5" fill="#B1B1B1"/>
<rect x="13" y="13" width="3.5" height="3.5" fill="#B1B1B1"/>
<rect x="13" y="19" width="3.5" height="3.5" fill="#B1B1B1"/>
<rect x="13" y="25" width="3.5" height="3.5" fill="#B1B1B1"/>
<rect x="19.5" y="13" width="3.5" height="3.5" fill="#B1B1B1"/>
<rect x="26" y="13" width="3.5" height="3.5" fill="#B1B1B1"/>
<rect x="19.5" y="19" width="3.5" height="3.5" fill="#B1B1B1"/>
<rect x="19.5" y="25" width="3.5" height="3.5" fill="#B1B1B1"/>
<rect x="26" y="19" width="3.5" height="3.5" fill="#B1B1B1"/>
<rect x="26" y="25" width="3.5" height="3.5" fill="#B1B1B1"/>
<rect x="13" y="7" width="3.5" height="3.5" fill="#B1B1B1"/>
<rect x="19.5" y="7" width="3.5" height="3.5" fill="#B1B1B1"/>
<rect x="26" y="7" width="3.5" height="3.5" fill="#B1B1B1"/>
<rect x="6.5" y="1" width="3.5" height="3.5" fill="#B1B1B1"/>
<rect x="6.5" y="13" width="3.5" height="3.5" fill="#B1B1B1"/>
<rect x="6.5" y="19" width="3.5" height="3.5" fill="#B1B1B1"/>
<rect x="6.5" y="25" width="3.5" height="3.5" fill="#B1B1B1"/>
<rect x="6.5" y="7" width="3.5" height="3.5" fill="#B1B1B1"/>
</svg>
