<svg width="26" height="29" viewBox="0 0 26 29" fill="none" xmlns="http://www.w3.org/2000/svg">
<rect width="26" height="28" transform="translate(0 0.5)" fill="#F6F6F6"/>
<rect y="1" width="5" height="5" fill="#B1B1B1"/>
<rect y="16" width="5" height="5" fill="#B1B1B1"/>
<rect y="23.5" width="5" height="5" fill="#B1B1B1"/>
<rect y="8.5" width="5" height="5" fill="#B1B1B1"/>
<rect x="14" y="1" width="5" height="5" fill="#B1B1B1"/>
<rect x="21" y="1" width="5" height="5" fill="#B1B1B1"/>
<rect x="14" y="16" width="5" height="5" fill="#B1B1B1"/>
<rect x="14" y="23.5" width="5" height="5" fill="#B1B1B1"/>
<rect x="21" y="16" width="5" height="5" fill="#B1B1B1"/>
<rect x="21" y="23.5" width="5" height="5" fill="#B1B1B1"/>
<rect x="14" y="8.5" width="5" height="5" fill="#B1B1B1"/>
<rect x="21" y="8.5" width="5" height="5" fill="#B1B1B1"/>
<rect x="7" y="1" width="5" height="5" fill="#B1B1B1"/>
<rect x="7" y="16" width="5" height="5" fill="#B1B1B1"/>
<rect x="7" y="23.5" width="5" height="5" fill="#B1B1B1"/>
<rect x="7" y="8.5" width="5" height="5" fill="#B1B1B1"/>
</svg>
