<svg width="36" height="37" viewBox="0 0 36 37" fill="none" xmlns="http://www.w3.org/2000/svg">
<path d="M20.2739 18.503L5.12336 33.092C4.41388 32.6071 3.99265 31.8006 4.0001 30.9413V6.06471C3.99265 5.20543 4.41388 4.39893 5.12336 3.91406L20.2739 18.503Z" fill="#2196F3"/>
<path d="M25.5749 13.4077L20.2736 18.5036L5.12305 3.91462C5.18013 3.87038 5.23959 3.82922 5.30111 3.79133C6.10183 3.30602 7.102 3.29035 7.91755 3.75024L25.5749 13.4077Z" fill="#4CAF50"/>
<path d="M31.9994 18.5041C32.0093 19.4741 31.4822 20.3701 30.6295 20.8329L25.5748 23.5999L20.2734 18.5041L25.5748 13.4082L30.6295 16.1753C31.4822 16.638 32.0093 17.534 31.9994 18.5041Z" fill="#FFC107"/>
<path d="M25.5749 23.5998L7.91755 33.2573C7.1002 33.71 6.10382 33.6943 5.30111 33.2162C5.23959 33.1783 5.18013 33.1371 5.12305 33.0929L20.2737 18.5039L25.5749 23.5998Z" fill="#F44336"/>
</svg>
