<svg width="33" height="24" viewBox="0 0 33 24" fill="none" xmlns="http://www.w3.org/2000/svg">
<path d="M26.5574 4.5625H6.77612C5.61067 4.5625 4.66675 5.51228 4.66675 6.67188V19.3281C4.66675 20.4946 5.61761 21.4375 6.77612 21.4375H26.5574C27.7131 21.4375 28.6667 20.4986 28.6667 19.3281V6.67188C28.6667 5.51434 27.7266 4.5625 26.5574 4.5625ZM26.262 5.96875C25.831 6.39742 18.4144 13.775 18.1583 14.0297C17.7599 14.4281 17.2302 14.6475 16.6667 14.6475C16.1033 14.6475 15.5736 14.4281 15.1739 14.0284C15.0017 13.8571 7.66689 6.56097 7.07153 5.96875H26.262ZM6.073 19.0419V6.95898L12.1498 13.0037L6.073 19.0419ZM7.07242 20.0312L13.1468 13.9955L14.1808 15.0241C14.8449 15.6881 15.7277 16.0538 16.6667 16.0538C17.6058 16.0538 18.4886 15.6881 19.1514 15.0254L20.1867 13.9955L26.2611 20.0312H7.07242ZM27.2605 19.0419L21.1837 13.0037L27.2605 6.95898V19.0419Z" fill="#5D5D5D"/>
</svg>
