<svg width="29" height="24" viewBox="0 0 29 24" fill="none" xmlns="http://www.w3.org/2000/svg">
<g clip-path="url(#clip0_1_1306)">
<path d="M27.8357 3.29526C27.4729 2.8664 26.9648 2.60445 26.405 2.55769L6.68709 0.911272C6.12721 0.864515 5.58285 1.03858 5.15394 1.40133C4.72677 1.76264 4.4652 2.26812 4.41697 2.82522L4.02027 6.54702H2.43625C1.27666 6.54702 0.333252 7.49043 0.333252 8.65002V20.993C0.333252 22.1526 1.27666 23.096 2.43625 23.096H22.2228C23.3825 23.096 24.3259 22.1526 24.3259 20.993V18.9908L25.028 19.0494C25.0872 19.0543 25.1461 19.0568 25.2045 19.0568C26.2856 19.0568 27.2072 18.225 27.2987 17.1287L28.3258 4.82847C28.3725 4.26863 28.1984 3.72417 27.8357 3.29526ZM2.43625 7.64076H22.2228C22.7793 7.64076 23.2321 8.09352 23.2321 8.65002V9.77471H1.427V8.65002C1.427 8.09352 1.87975 7.64076 2.43625 7.64076ZM1.427 10.8685H23.2321V13.1374H1.427V10.8685ZM22.2228 22.0023H2.43625C1.87975 22.0023 1.427 21.5495 1.427 20.993V14.2311H23.2321V20.993C23.2321 21.5495 22.7793 22.0023 22.2228 22.0023ZM27.2358 4.73741L26.2088 17.0376C26.1624 17.5922 25.6735 18.0059 25.119 17.9594L24.3259 17.8932V8.65002C24.3259 7.49043 23.3825 6.54702 22.2228 6.54702H5.12025L5.50519 2.93547C5.50563 2.93131 5.50601 2.92721 5.50634 2.923C5.55266 2.36842 6.04135 1.95476 6.59609 2.00124L26.314 3.64766C26.5827 3.67008 26.8266 3.79581 27.0006 4.00165C27.1747 4.20749 27.2583 4.46873 27.2358 4.73741Z" fill="#107FE4"/>
<path d="M20.9432 15.8569H15.6799C15.3779 15.8569 15.1331 16.1018 15.1331 16.4038V19.8376C15.1331 20.1396 15.3779 20.3845 15.6799 20.3845H20.9432C21.2452 20.3845 21.49 20.1396 21.49 19.8376V16.4038C21.49 16.1018 21.2452 15.8569 20.9432 15.8569ZM20.3963 19.2907H16.2268V16.9507H20.3963V19.2907Z" fill="#107FE4"/>
</g>
<defs>
<clipPath id="clip0_1_1306">
<rect width="28" height="24" fill="white" transform="translate(0.333252)"/>
</clipPath>
</defs>
</svg>
