<svg width="168" height="55" viewBox="0 0 168 55" fill="none" xmlns="http://www.w3.org/2000/svg">
<g opacity="0.9">
<rect width="168" height="55" rx="8" fill="white"/>
<path d="M30.0214 27.5028L16.5542 40.4707C15.9236 40.0397 15.5491 39.3228 15.5558 38.559V16.4465C15.5491 15.6827 15.9236 14.9658 16.5542 14.5348L30.0214 27.5028Z" fill="#2196F3"/>
<path d="M34.7332 22.9736L30.0209 27.5032L16.5537 14.5352C16.6045 14.4959 16.6573 14.4593 16.712 14.4257C17.4237 13.9943 18.3128 13.9803 19.0377 14.3891L34.7332 22.9736Z" fill="#4CAF50"/>
<path d="M40.4445 27.5037C40.4533 28.3659 39.9848 29.1624 39.2269 29.5737L34.7338 32.0333L30.0215 27.5037L34.7338 22.974L39.2269 25.4336C39.9848 25.8449 40.4533 26.6414 40.4445 27.5037Z" fill="#FFC107"/>
<path d="M34.7332 32.0331L19.0377 40.6175C18.3112 41.02 17.4255 41.006 16.712 40.581C16.6573 40.5473 16.6045 40.5107 16.5537 40.4714L30.0209 27.5034L34.7332 32.0331Z" fill="#F44336"/>
<path d="M56.204 23.884V21.184H57.068C57.5 20.656 57.82 19.948 58.028 19.06C58.236 18.164 58.34 17.052 58.34 15.724V13.54H64.112V21.184H65.348V23.884H64.46V22H57.092V23.884H56.204ZM58.088 21.184H63.116V14.356H59.264V15.796C59.264 17.084 59.168 18.164 58.976 19.036C58.784 19.9 58.488 20.616 58.088 21.184ZM69.1011 22.108C68.5251 22.108 68.0211 21.984 67.5891 21.736C67.1651 21.48 66.8371 21.12 66.6051 20.656C66.3731 20.184 66.2571 19.628 66.2571 18.988C66.2571 18.34 66.3731 17.784 66.6051 17.32C66.8371 16.856 67.1651 16.5 67.5891 16.252C68.0211 15.996 68.5251 15.868 69.1011 15.868C69.6851 15.868 70.1891 15.996 70.6131 16.252C71.0451 16.5 71.3771 16.856 71.6091 17.32C71.8491 17.784 71.9691 18.34 71.9691 18.988C71.9691 19.628 71.8491 20.184 71.6091 20.656C71.3771 21.12 71.0451 21.48 70.6131 21.736C70.1891 21.984 69.6851 22.108 69.1011 22.108ZM69.1011 21.316C69.6771 21.316 70.1331 21.12 70.4691 20.728C70.8051 20.328 70.9731 19.748 70.9731 18.988C70.9731 18.22 70.8051 17.64 70.4691 17.248C70.1331 16.848 69.6771 16.648 69.1011 16.648C68.5331 16.648 68.0811 16.848 67.7451 17.248C67.4091 17.64 67.2411 18.22 67.2411 18.988C67.2411 19.748 67.4091 20.328 67.7451 20.728C68.0811 21.12 68.5331 21.316 69.1011 21.316ZM76.1338 22.108C75.5418 22.108 75.0258 21.98 74.5858 21.724C74.1538 21.468 73.8178 21.104 73.5778 20.632C73.3458 20.16 73.2298 19.6 73.2298 18.952C73.2298 18.296 73.3498 17.74 73.5898 17.284C73.8298 16.82 74.1658 16.468 74.5978 16.228C75.0378 15.988 75.5498 15.868 76.1338 15.868C76.5178 15.868 76.8898 15.936 77.2498 16.072C77.6178 16.208 77.9218 16.4 78.1618 16.648L77.8138 17.344C77.5738 17.112 77.3098 16.94 77.0218 16.828C76.7418 16.716 76.4658 16.66 76.1938 16.66C75.5698 16.66 75.0858 16.856 74.7418 17.248C74.3978 17.64 74.2258 18.212 74.2258 18.964C74.2258 19.708 74.3978 20.284 74.7418 20.692C75.0858 21.1 75.5698 21.304 76.1938 21.304C76.4578 21.304 76.7298 21.252 77.0098 21.148C77.2978 21.044 77.5658 20.872 77.8138 20.632L78.1618 21.316C77.9138 21.572 77.6058 21.768 77.2378 21.904C76.8698 22.04 76.5018 22.108 76.1338 22.108ZM80.8963 22V16.756H78.7123V15.976H84.0643V16.756H81.8683V22H80.8963ZM84.9047 24.724L84.6767 23.92C85.0527 23.832 85.3647 23.728 85.6127 23.608C85.8687 23.496 86.0807 23.344 86.2487 23.152C86.4167 22.96 86.5607 22.72 86.6807 22.432L86.9927 21.724L86.9687 22.132L84.3407 15.976H85.3967L87.5687 21.268H87.2567L89.4047 15.976H90.4247L87.6407 22.504C87.4807 22.888 87.3047 23.208 87.1127 23.464C86.9207 23.728 86.7127 23.94 86.4887 24.1C86.2727 24.268 86.0327 24.4 85.7687 24.496C85.5047 24.592 85.2167 24.668 84.9047 24.724ZM91.5889 22V15.976H96.8089V22H95.8369V16.744H92.5609V22H91.5889ZM98.7256 22V15.976H99.6976V18.496H103.01V15.976H103.982V22H103.01V19.276H99.6976V22H98.7256ZM108.418 22.108C107.842 22.108 107.338 21.984 106.906 21.736C106.482 21.48 106.154 21.12 105.922 20.656C105.69 20.184 105.574 19.628 105.574 18.988C105.574 18.34 105.69 17.784 105.922 17.32C106.154 16.856 106.482 16.5 106.906 16.252C107.338 15.996 107.842 15.868 108.418 15.868C109.002 15.868 109.506 15.996 109.93 16.252C110.362 16.5 110.694 16.856 110.926 17.32C111.166 17.784 111.286 18.34 111.286 18.988C111.286 19.628 111.166 20.184 110.926 20.656C110.694 21.12 110.362 21.48 109.93 21.736C109.506 21.984 109.002 22.108 108.418 22.108ZM108.418 21.316C108.994 21.316 109.45 21.12 109.786 20.728C110.122 20.328 110.29 19.748 110.29 18.988C110.29 18.22 110.122 17.64 109.786 17.248C109.45 16.848 108.994 16.648 108.418 16.648C107.85 16.648 107.398 16.848 107.062 17.248C106.726 17.64 106.558 18.22 106.558 18.988C106.558 19.748 106.726 20.328 107.062 20.728C107.398 21.12 107.85 21.316 108.418 21.316ZM115.999 22V15.976H118.903C119.375 15.976 119.763 16.036 120.067 16.156C120.371 16.276 120.599 16.456 120.751 16.696C120.911 16.928 120.991 17.216 120.991 17.56C120.991 17.944 120.855 18.268 120.583 18.532C120.319 18.788 119.975 18.94 119.551 18.988V18.844C120.047 18.86 120.443 19.004 120.739 19.276C121.035 19.548 121.183 19.9 121.183 20.332C121.183 20.852 120.991 21.26 120.607 21.556C120.231 21.852 119.695 22 118.999 22H115.999ZM116.923 21.34H118.951C119.375 21.34 119.699 21.252 119.923 21.076C120.155 20.892 120.271 20.632 120.271 20.296C120.271 19.96 120.155 19.704 119.923 19.528C119.699 19.352 119.375 19.264 118.951 19.264H116.923V21.34ZM116.923 18.604H118.843C119.235 18.604 119.539 18.516 119.755 18.34C119.971 18.164 120.079 17.92 120.079 17.608C120.079 17.296 119.971 17.056 119.755 16.888C119.539 16.712 119.235 16.624 118.843 16.624H116.923V18.604Z" fill="#1E1E1E"/>
<path d="M62.688 41.16C61.4187 41.16 60.352 40.9253 59.488 40.456C58.624 39.9867 57.9733 39.32 57.536 38.456C57.0987 37.592 56.88 36.568 56.88 35.384C56.88 34.1893 57.1147 33.16 57.584 32.296C58.0533 31.4213 58.7253 30.7493 59.6 30.28C60.4853 29.8 61.5467 29.56 62.784 29.56C63.6053 29.56 64.3253 29.672 64.944 29.896C65.5627 30.1093 66.1067 30.424 66.576 30.84L65.888 32.44C65.5467 32.1733 65.2213 31.96 64.912 31.8C64.6027 31.64 64.2827 31.528 63.952 31.464C63.6213 31.3893 63.2373 31.352 62.8 31.352C61.5627 31.352 60.624 31.704 59.984 32.408C59.3547 33.1013 59.04 34.0987 59.04 35.4C59.04 36.7013 59.3387 37.6933 59.936 38.376C60.544 39.0587 61.4933 39.4 62.784 39.4C63.2213 39.4 63.6587 39.3573 64.096 39.272C64.544 39.1867 64.9813 39.064 65.408 38.904L65.024 39.768V36.392H62.384V34.888H66.736V40.312C66.384 40.4827 65.984 40.632 65.536 40.76C65.0987 40.888 64.6347 40.984 64.144 41.048C63.664 41.1227 63.1787 41.16 62.688 41.16ZM72.5798 41.16C71.7478 41.16 71.0278 40.9893 70.4198 40.648C69.8118 40.3067 69.3371 39.8213 68.9958 39.192C68.6651 38.5627 68.4998 37.816 68.4998 36.952C68.4998 36.088 68.6651 35.3467 68.9958 34.728C69.3371 34.0987 69.8118 33.6133 70.4198 33.272C71.0278 32.9307 71.7478 32.76 72.5798 32.76C73.4118 32.76 74.1318 32.9307 74.7398 33.272C75.3584 33.6133 75.8331 34.0987 76.1638 34.728C76.5051 35.3467 76.6758 36.088 76.6758 36.952C76.6758 37.816 76.5051 38.5627 76.1638 39.192C75.8331 39.8213 75.3584 40.3067 74.7398 40.648C74.1318 40.9893 73.4118 41.16 72.5798 41.16ZM72.5798 39.624C73.2091 39.624 73.7104 39.4053 74.0838 38.968C74.4571 38.52 74.6438 37.848 74.6438 36.952C74.6438 36.056 74.4571 35.3893 74.0838 34.952C73.7104 34.5147 73.2091 34.296 72.5798 34.296C71.9504 34.296 71.4491 34.5147 71.0758 34.952C70.7024 35.3893 70.5158 36.056 70.5158 36.952C70.5158 37.848 70.7024 38.52 71.0758 38.968C71.4491 39.4053 71.9504 39.624 72.5798 39.624ZM82.0485 41.16C81.2165 41.16 80.4965 40.9893 79.8885 40.648C79.2805 40.3067 78.8058 39.8213 78.4645 39.192C78.1338 38.5627 77.9685 37.816 77.9685 36.952C77.9685 36.088 78.1338 35.3467 78.4645 34.728C78.8058 34.0987 79.2805 33.6133 79.8885 33.272C80.4965 32.9307 81.2165 32.76 82.0485 32.76C82.8805 32.76 83.6005 32.9307 84.2085 33.272C84.8272 33.6133 85.3018 34.0987 85.6325 34.728C85.9738 35.3467 86.1445 36.088 86.1445 36.952C86.1445 37.816 85.9738 38.5627 85.6325 39.192C85.3018 39.8213 84.8272 40.3067 84.2085 40.648C83.6005 40.9893 82.8805 41.16 82.0485 41.16ZM82.0485 39.624C82.6778 39.624 83.1792 39.4053 83.5525 38.968C83.9258 38.52 84.1125 37.848 84.1125 36.952C84.1125 36.056 83.9258 35.3893 83.5525 34.952C83.1792 34.5147 82.6778 34.296 82.0485 34.296C81.4192 34.296 80.9178 34.5147 80.5445 34.952C80.1712 35.3893 79.9845 36.056 79.9845 36.952C79.9845 37.848 80.1712 38.52 80.5445 38.968C80.9178 39.4053 81.4192 39.624 82.0485 39.624ZM87.8693 41V29.224H89.8693V41H87.8693ZM95.7851 44.584C95.0385 44.584 94.3611 44.504 93.7531 44.344C93.1558 44.184 92.6225 43.9387 92.1531 43.608L92.5851 42.168C92.8945 42.3707 93.2145 42.536 93.5451 42.664C93.8758 42.792 94.2171 42.888 94.5691 42.952C94.9211 43.016 95.2785 43.048 95.6411 43.048C96.3878 43.048 96.9425 42.8613 97.3051 42.488C97.6785 42.1253 97.8651 41.6027 97.8651 40.92V38.984H98.0251C97.8545 39.5387 97.5078 39.9813 96.9851 40.312C96.4731 40.6427 95.8811 40.808 95.2091 40.808C94.4838 40.808 93.8491 40.648 93.3051 40.328C92.7718 39.9973 92.3558 39.528 92.0571 38.92C91.7585 38.312 91.6091 37.5973 91.6091 36.776C91.6091 35.9547 91.7585 35.2453 92.0571 34.648C92.3558 34.04 92.7718 33.576 93.3051 33.256C93.8491 32.9253 94.4838 32.76 95.2091 32.76C95.8918 32.76 96.4838 32.9253 96.9851 33.256C97.4971 33.576 97.8385 34.0133 98.0091 34.568L97.8651 34.472L98.0251 32.92H99.9611C99.9185 33.2507 99.8865 33.5867 99.8651 33.928C99.8438 34.2693 99.8331 34.6053 99.8331 34.936V40.68C99.8331 41.9493 99.4865 42.9147 98.7931 43.576C98.1105 44.248 97.1078 44.584 95.7851 44.584ZM95.7531 39.272C96.3931 39.272 96.8998 39.0587 97.2731 38.632C97.6571 38.1947 97.8491 37.576 97.8491 36.776C97.8491 35.976 97.6571 35.3627 97.2731 34.936C96.8998 34.5093 96.3931 34.296 95.7531 34.296C95.1025 34.296 94.5851 34.5093 94.2011 34.936C93.8171 35.3627 93.6251 35.976 93.6251 36.776C93.6251 37.576 93.8171 38.1947 94.2011 38.632C94.5851 39.0587 95.1025 39.272 95.7531 39.272ZM101.994 41V29.224H103.994V41H101.994ZM110.07 41.16C109.163 41.16 108.385 40.9947 107.734 40.664C107.094 40.3227 106.598 39.8373 106.246 39.208C105.905 38.5787 105.734 37.832 105.734 36.968C105.734 36.1253 105.899 35.3893 106.23 34.76C106.561 34.1307 107.019 33.64 107.606 33.288C108.203 32.936 108.897 32.76 109.686 32.76C110.465 32.76 111.115 32.9253 111.638 33.256C112.161 33.5867 112.555 34.0507 112.822 34.648C113.099 35.2453 113.238 35.944 113.238 36.744V37.272H107.35V36.216H111.814L111.542 36.44C111.542 35.6933 111.382 35.1227 111.062 34.728C110.753 34.3333 110.299 34.136 109.702 34.136C109.254 34.136 108.875 34.2427 108.566 34.456C108.267 34.6693 108.038 34.9733 107.878 35.368C107.718 35.7627 107.638 36.2427 107.638 36.808V37.016C107.638 37.8907 107.851 38.5467 108.278 38.984C108.715 39.4107 109.329 39.624 110.118 39.624C110.577 39.624 111.003 39.5653 111.398 39.448C111.803 39.32 112.187 39.1173 112.55 38.84L113.142 40.184C112.758 40.4933 112.299 40.7333 111.766 40.904C111.233 41.0747 110.667 41.16 110.07 41.16ZM119.482 41V29.72H124.49C125.728 29.72 126.672 30.0187 127.322 30.616C127.973 31.2133 128.298 32.0347 128.298 33.08C128.298 33.7733 128.149 34.376 127.85 34.888C127.562 35.3893 127.136 35.7787 126.57 36.056C126.005 36.3227 125.312 36.456 124.49 36.456H121.546V41H119.482ZM121.546 34.824H124.25C124.933 34.824 125.445 34.6747 125.786 34.376C126.128 34.0667 126.298 33.6347 126.298 33.08C126.298 32.5253 126.128 32.0987 125.786 31.8C125.445 31.4907 124.933 31.336 124.25 31.336H121.546V34.824ZM129.979 41V29.224H131.979V41H129.979ZM137.271 41.16C136.567 41.16 135.948 40.9947 135.414 40.664C134.881 40.3227 134.465 39.8373 134.167 39.208C133.868 38.5787 133.719 37.8267 133.719 36.952C133.719 36.0773 133.868 35.3307 134.167 34.712C134.465 34.0827 134.881 33.6027 135.414 33.272C135.948 32.9307 136.567 32.76 137.271 32.76C137.953 32.76 138.551 32.9307 139.063 33.272C139.585 33.6027 139.932 34.0507 140.103 34.616H139.927L140.103 32.92H142.023C141.991 33.2507 141.959 33.5867 141.927 33.928C141.905 34.2693 141.895 34.6053 141.895 34.936V41H139.911L139.895 39.336H140.087C139.916 39.8907 139.569 40.3333 139.047 40.664C138.524 40.9947 137.932 41.16 137.271 41.16ZM137.831 39.624C138.46 39.624 138.967 39.4053 139.351 38.968C139.735 38.52 139.927 37.848 139.927 36.952C139.927 36.056 139.735 35.3893 139.351 34.952C138.967 34.5147 138.46 34.296 137.831 34.296C137.201 34.296 136.695 34.5147 136.311 34.952C135.927 35.3893 135.735 36.056 135.735 36.952C135.735 37.848 135.921 38.52 136.295 38.968C136.679 39.4053 137.191 39.624 137.831 39.624ZM143.834 44.632L143.37 43.048C143.872 42.9413 144.293 42.8187 144.634 42.68C144.976 42.5413 145.258 42.36 145.482 42.136C145.706 41.912 145.893 41.624 146.042 41.272L146.442 40.328L146.394 41.112L142.874 32.92H145.002L147.53 39.224H147.066L149.61 32.92H151.626L147.946 41.448C147.701 42.024 147.434 42.4987 147.146 42.872C146.858 43.256 146.549 43.56 146.218 43.784C145.888 44.0187 145.525 44.2 145.13 44.328C144.736 44.456 144.304 44.5573 143.834 44.632Z" fill="#1E1E1E"/>
</g>
</svg>
