<svg width="24" height="24" viewBox="0 0 24 24" fill="none" xmlns="http://www.w3.org/2000/svg">
<g clip-path="url(#clip0_1_1223)">
<path d="M18.5986 4.025L18.5987 4.025L19.4 4.025V1.975H11.6711C11.4743 1.97513 11.2807 2.0245 11.1078 2.1186L18.5986 4.025ZM18.5986 4.025C18.4134 4.02522 18.2358 4.09889 18.1049 4.22986C17.9739 4.36083 17.9002 4.5384 17.9 4.72362C17.8996 5.03551 17.7756 5.33452 17.5551 5.55506C17.3345 5.77559 17.0355 5.89965 16.7236 5.9L15.8019 5.9L15.8017 5.9C15.6626 5.90024 15.5275 5.9466 15.4176 6.03182L15.4174 6.03193L13.0771 7.85232L13.0771 7.85234C12.9161 7.97763 12.7135 8.03684 12.5104 8.01789C12.3074 7.99895 12.1192 7.90329 11.9842 7.7504C11.8492 7.59752 11.7777 7.39892 11.784 7.19507C11.7904 6.99123 11.8743 6.7975 12.0186 6.65335L12.0186 6.65332L14.5858 4.08606C14.6523 4.01965 14.6976 3.935 14.7159 3.84283C14.7343 3.75066 14.7249 3.65512 14.689 3.56828C14.653 3.48145 14.5921 3.40724 14.514 3.35503C14.4358 3.30283 14.344 3.27498 14.25 3.275C14.25 3.275 14.25 3.275 14.25 3.275H8.98781L11.1077 2.11864L18.5986 4.025ZM19.4 4.975V5.625C19.4 5.75098 19.45 5.8718 19.5391 5.96088C19.6282 6.04996 19.749 6.1 19.875 6.1H22.875C23.001 6.1 23.1218 6.04996 23.2109 5.96088C23.3 5.8718 23.35 5.75098 23.35 5.625V0.75C23.35 0.624022 23.3 0.503204 23.2109 0.414124C23.1218 0.325044 23.001 0.275 22.875 0.275H19.875C19.749 0.275 19.6282 0.325044 19.5391 0.414124C19.45 0.503204 19.4 0.624022 19.4 0.75V1.025H11.671L11.671 1.025C11.3153 1.02525 10.9653 1.11449 10.6529 1.28458L10.6528 1.28462L7.00383 3.275H2.625C1.91416 3.275 1.4 4.00721 1.4 4.875C1.4 5.63838 1.79551 6.29224 2.37396 6.44263L0.714237 12.0612L0.714219 12.0612L0.713705 12.0631L0.709486 12.0785L0.70946 12.0785L0.708899 12.0807C0.669801 12.2374 0.650021 12.3982 0.65 12.5596V23.25C0.65 23.376 0.700044 23.4968 0.789124 23.5859C0.878204 23.675 0.999022 23.725 1.125 23.725H18C18.126 23.725 18.2468 23.675 18.3359 23.5859C18.425 23.4968 18.475 23.376 18.475 23.25V12.591C18.475 12.4024 18.448 12.2147 18.3947 12.0337L16.8685 6.84465C17.3546 6.81101 17.8161 6.61136 18.1742 6.27702C18.5418 5.93383 18.7753 5.47234 18.8351 4.975H19.4ZM13.8345 12.0785L13.8345 12.0785L13.8339 12.0808C13.7948 12.2374 13.775 12.3982 13.775 12.5597V22.775H1.6L1.6 12.5597C1.6 12.5597 1.6 12.5597 1.6 12.5596C1.60004 12.4789 1.60958 12.3984 1.62844 12.3199L3.35495 6.475H11.0005C10.8533 6.7902 10.8027 7.14344 10.8573 7.48962C10.9208 7.89224 11.1227 8.26011 11.4283 8.52989C11.7338 8.79967 12.1239 8.95449 12.5313 8.96768C12.9386 8.98088 13.3379 8.85163 13.6602 8.60218L13.6604 8.60203L15.2192 7.38958L13.8392 12.0613L13.8392 12.0613L13.8387 12.0632L13.8345 12.0785ZM17.4834 12.3019L17.4834 12.3019C17.511 12.3958 17.525 12.4931 17.525 12.591V21.9629L16.5872 20.2956L16.5872 20.2955L16.2122 19.6279L16.125 19.4727L16.0378 19.6279L15.6628 20.2956L15.6628 20.2956L14.725 21.9629V12.5597C14.725 12.5597 14.725 12.5597 14.725 12.5596C14.725 12.4789 14.7346 12.3984 14.7534 12.3199L16.1238 7.68003L17.4834 12.3019ZM2.35 4.875C2.35 4.66177 2.40179 4.49171 2.46693 4.37803C2.4996 4.321 2.53429 4.28045 2.56513 4.25528C2.59712 4.22917 2.61794 4.225 2.625 4.225H13.1033L11.8033 5.525H2.625C2.61794 5.525 2.59712 5.52083 2.56513 5.49472C2.53429 5.46955 2.4996 5.429 2.46693 5.37197C2.40179 5.25829 2.35 5.08823 2.35 4.875ZM15.3209 22.775L16.125 21.2452L16.9291 22.775H15.3209ZM22.4 1.225V5.15H20.35V1.225H22.4Z" fill="#5E5E5E" stroke="#5E5E5E" stroke-width="0.2"/>
</g>
<defs>
<clipPath id="clip0_1_1223">
<rect width="24" height="24" fill="white"/>
</clipPath>
</defs>
</svg>
